<svg xmlns="http://www.w3.org/2000/svg" xmlns:xlink="http://www.w3.org/1999/xlink" width="224" height="78" viewBox="0 0 224 78">
    <defs>
        <linearGradient id="prefix__a" x1="0%" x2="0%" y1="100%" y2="-1.817%">
            <stop offset="0%" stop-color="#0034B1"/>
            <stop offset="100%" stop-color="#00A0FF"/>
        </linearGradient>
        <path id="prefix__b" d="M17.464 0l-1.352 1.674v38.57l1.352 1.578 1.353-1.579V1.674L17.464 0zm4.057 29.668l.042-.026 1.33 1.55 1.352-1.578V16.993l-.019-.023V5.293c-.453-.258-1.45-.708-2.705-.958v25.333zM10.704 5.293l.033 24.321 1.353 1.579 1.351-1.579-.033-25.28c-1.254.251-2.251.701-2.704.959zM26.93 14.05l-.01.012v13.583l1.353 1.578 1.352-1.578.035-18.814c-.86-.89-1.721-1.592-2.73-2.175v7.394zM5.27 8.832l.086 18.814 1.352 1.578 1.352-1.578L8 6.657c-1.009.583-1.87 1.285-2.73 2.175zm26.955 36.675l1.428 1.562 1.353-1.579-.077-27.815c-.278-1.408-1.633-4.644-2.704-5.877v33.71zM0 17.675L.017 28.65l-.004 3.242-.013.016V45.49l1.352 1.579 1.341-1.566.011.004V11.798C1.634 13.03.277 16.267 0 17.675zM26.92 36.52l.01 18.496c1.009-.583 1.87-1.285 2.73-2.176l-.011-3.88V36.828l-.024.015v-.321l-1.352-1.675-1.352 1.675zm-21.564 0v.317l-.062-.037v15.835l.004.002v.203c.86.89 1.72 1.593 2.73 2.176L8.06 36.52l-1.352-1.675-1.352 1.675zm16.184 5.727l-.019 14.818c1.254-.251 2.252-.702 2.705-.96l.019-13.858-1.352-1.674-1.353 1.674zm-10.803 0l-.033 13.858c.453.258 1.45.709 2.704.96V54.14l.033-.04V42.249l-1.351-1.674-1.353 1.674z"/>
    </defs>
    <g fill="none" fill-rule="evenodd">
        <path fill="#FFF" d="M92.44 52.212h-1.654c-1.39 2.117-3.076 2.844-4.928 2.844-3.64 0-5.723-3.042-5.723-7.641 0-4.366 1.786-7.046 4.466-7.046 1.19 0 2.183.529 3.175 2.745h4.135c-.86-2.877-4.135-3.837-7.245-3.837-5.986 0-8.666 3.507-8.666 8.304 0 5.226 2.977 8.567 9.195 8.567 3.838 0 5.79-1.356 7.245-3.936zm18.194-12.603h-5.822v1.09h2.414l-4.465 12.142L98.526 40.7h1.853v-1.091h-8.601v1.09h2.349l5.359 15.119h2.25l-2.118 6.119h1.158l7.608-21.237h2.25v-1.091zm10.816-.332c-1.422 0-2.712.364-3.969 1.225l.628.694c.794-.595 1.82-.827 2.713-.827 3.242 0 3.903 3.077 3.903 7.542 0 4.103-.562 7.145-3.738 7.145-1.653 0-3.043-.826-3.903-2.282-.364-.661-.728-1.257-.728-2.05V32h-6.385v1.092h2.25v21.634h-2.25v1.092h5.723l.563-1.985c1.256 1.686 3.043 2.315 5.094 2.315 4.565 0 7.51-3.374 7.51-8.237 0-5.028-2.945-8.634-7.411-8.634zm25.769 12.935h-1.653c-1.589 2.349-3.54 2.844-5.029 2.844-3.639 0-5.557-3.11-5.557-7.111h12.371c-.099-5.557-2.248-8.668-7.906-8.668-5.987 0-8.6 3.441-8.6 8.205 0 5.391 3.374 8.666 8.964 8.666 3.21 0 5.558-1.092 7.41-3.936zm-4.002-5.36h-8.237c0-2.38 1.158-6.516 4.433-6.483 2.447.034 3.804 2.316 3.804 6.484zm15.712-7.575c-2.216 0-3.44 1.126-4.267 2.35l-.198-2.018h-5.955v1.09h2.15v14.027h-2.15v1.092h8.435v-1.092h-2.15l-.033-9.791c0-2.183 1.488-4.566 3.242-4.566.827 0 1.423.529 1.753 2.745h4.135c-.397-2.877-2.878-3.837-4.962-3.837zm23.982 15.449v-9.791c0-4.797-2.414-5.658-5.127-5.658-3.705 0-5.557 1.621-7.178 3.143l-.596-2.811h-5.623v1.09h2.15v14.027h-2.15v1.092h8.435v-1.092h-2.15l-.033-9.791c0-.86.297-1.39.926-2.084 1.455-1.589 2.911-2.482 4.499-2.482 2.05 0 2.713 1.455 2.713 3.804v10.553h-2.151v1.092h8.436v-1.092h-2.15zM189 36.433h4.134V32H189v4.433zm4.134 18.293V39.609h-6.252v1.09h2.116v14.027h-2.116v1.092h8.435v-1.092h-2.183zm8.534-20.212c0 2.614-1.522 5.095-5.69 5.095v1.09h2.646v11.447c0 3.043 1.192 4.002 4.896 4.002 1.356 0 2.15-.099 3.11-.397V54.66c-1.158.33-1.786.396-2.282.396-1.125 0-1.589-.628-1.589-1.918V40.7h3.87v-1.091h-3.87v-5.095h-1.09zm21.998 17.698h-1.655c-1.587 2.349-3.539 2.844-5.027 2.844-3.64 0-5.558-3.11-5.558-7.111h12.372c-.1-5.557-2.25-8.668-7.906-8.668-5.987 0-8.601 3.441-8.601 8.205 0 5.391 3.374 8.666 8.965 8.666 3.208 0 5.557-1.092 7.41-3.936zm-4.004-5.36h-8.236c0-2.38 1.157-6.516 4.432-6.483 2.448.034 3.804 2.316 3.804 6.484z"/>
        <path fill="url(#prefix__a)" d="M0 0v48.964c0 15.547 12.33 28.148 27.54 28.148 15.21 0 27.54-12.601 27.54-28.148V0H0z"/>
        <g transform="translate(9.72 11.016)">
            <use fill="#FFF" xlink:href="#prefix__b"/>
        </g>
    </g>
</svg>
